<svg xmlns="http://www.w3.org/2000/svg" viewBox="0 0 60 60"><defs><style>.cls-1{fill:#fbfbfb;}.cls-2,.cls-4{fill:#aaa;}.cls-3{fill:#fff;}.cls-4{isolation:isolate;font-size:10px;font-family:Roboto-Medium, Roboto;font-weight:500;}</style></defs><g id="레이어_2" data-name="레이어 2"><g id="레이어_1-2" data-name="레이어 1"><g id="그룹_594" data-name="그룹 594"><g id="그룹_587" data-name="그룹 587"><g id="그룹_139" data-name="그룹 139"><g id="타원_6-8" data-name="타원 6-8"><circle class="cls-1" cx="30" cy="30" r="30"/><path class="cls-2" d="M30,60A30,30,0,1,1,60,30,30,30,0,0,1,30,60ZM30,2A28,28,0,1,0,58,30,28,28,0,0,0,30,2Z"/></g></g></g><g id="사각형_8647" data-name="사각형 8647"><rect class="cls-3" x="21" y="12" width="23" height="31" rx="4"/><path class="cls-2" d="M40,43H25a4,4,0,0,1-4-4V16a4,4,0,0,1,4-4H40a4,4,0,0,1,4,4V39A4,4,0,0,1,40,43ZM25,14a2,2,0,0,0-2,2V39a2,2,0,0,0,2,2H40a2,2,0,0,0,2-2V16a2,2,0,0,0-2-2Z"/></g><g id="그룹_590" data-name="그룹 590"><g id="사각형_8648" data-name="사각형 8648"><rect class="cls-3" x="16" y="17" width="23" height="31" rx="4"/><path class="cls-2" d="M35,48H20a4,4,0,0,1-4-4V21a4,4,0,0,1,4-4H35a4,4,0,0,1,4,4V44A4,4,0,0,1,35,48ZM20,19a2,2,0,0,0-2,2V44a2,2,0,0,0,2,2H35a2,2,0,0,0,2-2V21a2,2,0,0,0-2-2Z"/></g><g id="A-z"><text class="cls-4" transform="translate(20 33)">A-z</text></g></g></g></g></g></svg>